<svg width="312" height="112" viewBox="0 0 312 112" fill="none" xmlns="http://www.w3.org/2000/svg">
<path d="M311.892 59.7931C312.137 59.5484 311.974 59.7116 311.32 60.3642L310.83 60.8536L311.892 59.7931Z" fill="#B32E5D"/>
<path d="M307.318 64.4428C306.583 65.2586 305.685 66.2374 306.257 65.748C306.992 64.9323 307.155 64.6875 307.972 63.7902C308.625 63.1376 309.115 62.5666 309.033 62.7298C309.278 62.4851 310.013 61.6693 310.422 61.2615C309.523 62.1588 308.38 63.2192 307.318 64.4428Z" fill="#B32E5D"/>
<path d="M224.017 104.169H224.588C224.425 104.169 224.18 104.169 224.017 104.169Z" fill="#B32E5D"/>
<path d="M166.44 107.84C166.849 107.84 167.094 107.758 167.094 107.677C166.685 107.677 166.359 107.758 166.44 107.84Z" fill="#B32E5D"/>
<path d="M156.558 106.453C156.803 106.453 156.967 106.453 157.13 106.535C156.885 106.453 156.722 106.371 156.558 106.453Z" fill="#B32E5D"/>
<path d="M224.017 104.169C223.527 104.169 222.955 104.169 222.465 104.169C222.465 104.414 223.282 104.169 224.017 104.169Z" fill="#B32E5D"/>
<path d="M297.845 73.1712C298.09 72.9264 298.335 72.7633 298.498 72.6001C298.253 72.7633 298.09 72.9264 297.927 73.0896L297.845 73.1712Z" fill="#B32E5D"/>
<path d="M248.599 97.3984L249.007 97.2352C249.089 97.1537 249.252 97.0721 249.334 96.909L248.599 97.3984Z" fill="#B32E5D"/>
<path d="M266.811 90.3831C266.403 90.5462 266.403 90.9541 266.321 91.1173C266.484 90.8725 266.729 90.7094 267.138 90.5462C267.138 90.5462 267.056 90.4647 266.893 90.3831H266.811Z" fill="#B32E5D"/>
<path d="M294.006 75.4552L294.415 75.1289C294.333 75.2105 294.088 75.3736 294.006 75.4552Z" fill="#B32E5D"/>
<path d="M235.124 101.069C235.124 101.069 234.96 100.988 234.879 100.988C234.879 100.988 234.96 101.069 235.124 101.069Z" fill="#B32E5D"/>
<path d="M276.938 38.8288C277.019 38.8288 277.019 38.9104 276.938 38.8288V38.8288Z" fill="#B32E5D"/>
<path d="M288.045 58.5695V58.2433C287.963 58.2433 287.963 58.2433 287.963 58.2433V58.6511L288.045 58.5695Z" fill="#B32E5D"/>
<path d="M138.755 103.924C139 103.924 139.245 103.924 138.755 103.924V103.924Z" fill="#B32E5D"/>
<path d="M12.2503 45.3547C11.5153 45.9257 11.5969 45.1916 11.6786 44.539C11.6786 43.8864 11.7603 43.3154 10.6986 44.2127C10.9436 44.2127 10.9436 44.8653 11.1069 45.3547C11.2702 45.8441 11.5969 46.0889 12.3319 45.3547H12.2503Z" fill="#B32E5D"/>
<path d="M297.437 73.4974C297.192 73.6606 297.028 73.8237 296.783 73.9869C297.11 73.7422 297.273 73.579 297.437 73.4974Z" fill="#B32E5D"/>
<path d="M10.6986 44.2127L10.4536 44.3758C10.5352 44.3758 10.6169 44.2127 10.6986 44.2127Z" fill="#B32E5D"/>
<path d="M97.5122 98.2957C97.5122 98.4588 97.6755 98.622 97.8388 98.7036C97.8388 98.622 97.8388 98.4588 97.5122 98.2957Z" fill="#B32E5D"/>
<path d="M128.056 104.251L127.321 104.006C127.648 104.087 127.893 104.169 128.056 104.251Z" fill="#B32E5D"/>
<path d="M81.5051 96.5011C81.0968 96.3379 81.0151 96.1748 80.4434 96.2564C80.4434 96.2564 80.5251 96.3379 80.6068 96.4195C80.8518 96.4195 81.0968 96.4195 81.5868 96.5827L81.5051 96.5011Z" fill="#B32E5D"/>
<path d="M64.9264 93.2382C64.9264 93.3197 65.0898 93.4013 65.1714 93.4829C65.3348 93.4829 65.4981 93.4829 65.7431 93.4829L64.9264 93.1566V93.2382Z" fill="#B32E5D"/>
<path d="M231.938 14.3569C232.265 14.6016 232.428 14.7647 232.592 14.9279C232.428 14.6016 234.797 15.2542 231.938 14.3569Z" fill="#B32E5D"/>
<path d="M297.763 73.1712C297.763 73.2527 297.6 73.3343 297.437 73.4974C297.6 73.3343 297.763 73.2527 297.845 73.1712H297.763Z" fill="#B32E5D"/>
<path d="M79.5451 103.109L76.9317 102.456C77.6667 102.701 78.5651 102.864 79.5451 103.109Z" fill="#B32E5D"/>
<path d="M111.641 1.30517L112.212 1.14202C111.967 1.14202 111.722 1.14202 111.641 1.30517Z" fill="#B32E5D"/>
<path d="M69.0915 101.151C68.6832 100.743 68.1932 100.498 67.7032 100.253C67.6215 100.253 67.4582 100.253 67.3765 100.417L69.0915 101.151Z" fill="#B32E5D"/>
<path d="M249.497 20.3933C247.129 19.3328 248.19 20.3117 247.619 20.3117C244.76 19.2513 246.394 19.4144 245.577 18.8434C243.78 18.1908 242.229 18.1092 240.922 17.6198C240.922 17.5382 240.595 17.3751 240.922 17.3751C238.88 17.0488 235.287 15.3358 232.837 15.1726C232.673 15.091 232.592 15.0095 232.592 14.9279C232.918 15.3358 232.837 15.5805 232.755 15.7436C231.693 15.4173 230.632 15.4989 230.305 15.0095C230.958 15.2542 231.04 15.091 231.448 15.0095L230.223 14.8463C229.325 14.0306 231.857 15.1726 231.938 14.8463C229.652 14.2753 226.875 13.949 225.242 13.2964C224.997 12.6438 229.325 14.3569 227.12 13.2149L229.733 14.1937C227.937 12.807 231.367 14.7647 229.733 13.378C228.018 12.7254 227.038 12.4807 225.977 12.236C224.997 11.9913 224.017 11.7465 222.22 11.1755C221.322 11.2571 222.383 11.665 221.485 11.7465C216.34 11.0124 217.891 9.29934 213.971 9.05462C213.481 9.05462 213.073 9.29934 212.501 9.38092C211.93 9.38092 211.113 9.38092 209.888 8.89148L210.95 8.40204C207.52 7.58631 208.745 8.97305 205.233 7.66788C205.968 7.50473 208.01 8.07575 207.52 7.83103C205.315 6.77058 205.805 7.83103 204.008 7.42316L203.763 6.689C202.864 6.52586 201.884 6.36271 200.904 6.19956C199.924 6.11799 198.944 5.95484 197.883 5.87327C195.841 5.62855 193.799 5.4654 191.676 5.13911C191.921 4.97596 192.656 4.89439 191.676 4.48653C190.369 4.32338 188.981 4.16023 187.674 3.91551C186.286 3.75237 184.897 3.50765 183.509 3.26293C180.732 2.77349 178.037 2.03933 175.506 1.63146L173.464 2.03933C172.974 2.03933 172.647 1.63146 173.137 1.54989C171.177 1.06045 172.974 1.95776 171.994 2.1209C170.85 2.1209 170.524 1.54989 171.259 1.46832C170.36 1.46832 169.299 1.46832 168.155 1.54989C167.012 1.54989 165.705 1.54989 164.48 1.54989C161.949 1.54989 159.417 1.38674 157.62 0.815732L158.355 0.652586C155.497 0.163146 155.088 1.87618 152.393 1.14202H152.883C149.78 0.815732 146.513 0.815732 143.41 0.652586C140.306 0.652586 137.366 0.571012 134.998 0C134.59 0.571012 133.038 0.407866 131.486 0.407866C130.016 0.407866 128.546 0.407866 128.383 1.2236C124.789 0.571012 125.769 0.24472 120.706 0C119.318 0 118.746 1.06045 117.113 1.38674V0.652586C117.031 0.652586 114.826 1.71304 114.826 1.71304L113.519 0.815732L111.967 1.14202C112.621 1.14202 113.356 1.38674 113.274 1.63146C110.906 2.20248 107.312 1.54989 107.231 1.06045L101.596 2.4472C101.677 2.03933 102.657 1.87618 103.392 1.54989C100.452 2.77349 102.739 0.734159 100.044 1.87618C100.452 2.03933 99.8805 2.4472 99.8805 2.61034C98.4105 2.28405 95.2254 2.61034 92.9387 3.26293L93.2654 2.61034C91.142 2.85506 88.937 3.26293 86.6502 3.75237C85.5069 3.99709 84.3635 4.16023 83.2202 4.48653C82.0768 4.73125 80.8518 5.05754 79.7084 5.22068C81.4235 5.22068 81.2601 6.36271 79.9534 6.689L79.2184 5.87327C78.4834 6.60743 80.7701 5.87327 79.0551 7.0153C77.2584 7.26001 77.6667 6.19956 78.5651 5.62855L76.5234 6.36271C76.36 6.11799 76.7684 5.87327 76.85 5.4654C76.115 6.28114 72.9299 5.22068 71.8682 6.52586L71.7049 6.28114C67.0498 7.42316 65.0081 8.23889 61.1697 9.21777C61.333 10.0335 59.7813 10.2782 58.883 11.2571C56.0246 11.7465 52.7578 11.9913 49.4911 12.9701C47.286 14.1122 49.0011 13.8674 48.1844 14.6832C47.7761 13.949 44.5093 15.091 46.061 14.0306C42.1409 15.4989 40.9976 15.8252 36.2608 18.4355C36.9141 18.5171 37.5675 18.4355 37.4042 18.8434C36.5875 19.3328 35.2808 19.3328 35.1991 18.925L35.3624 18.7618C32.8307 20.4749 29.4823 21.3722 26.2156 22.5142C23.0305 23.6562 19.9271 25.1245 18.4571 27.2454L18.6204 27.0007L16.8237 28.9585C16.252 29.6111 15.6803 30.2637 15.1903 30.9978C13.312 32.5477 15.8437 29.5295 14.2103 30.4268C12.5769 32.874 11.1069 34.5055 9.63688 36.0554C8.98353 36.8711 8.24852 37.6052 7.67684 38.5025C7.35016 38.9104 7.10516 39.3999 6.86015 39.8893C6.61515 40.3787 6.37014 40.9497 6.2068 41.4392C4.24676 42.4181 2.69506 45.4363 1.79671 48.8623C1.38836 50.5754 1.06169 52.37 0.816685 54.083C0.571679 55.7961 0.408342 57.346 0 58.6511L0.571679 58.3248C1.22503 59.63 0.326674 59.9563 0.245005 61.0167C0.653348 60.8536 0.653348 59.4669 1.06169 60.2826C1.47003 63.0561 2.12338 65.9111 3.18507 68.6031C4.24676 71.295 5.55346 73.9053 7.18683 76.2709C10.5352 81.0838 14.9453 84.9177 19.6004 87.8543C21.3155 88.9148 22.2138 88.4253 23.0305 88.2622C23.9289 88.0175 24.8272 88.0175 26.7056 89.5674C26.1339 89.7305 25.5622 89.8121 24.9906 89.9752C28.829 91.0357 32.5041 92.3409 36.2608 93.4829C40.0176 94.6249 43.6926 95.6854 47.4494 95.9301C46.9594 96.0932 46.8777 96.3379 46.1427 96.1748C47.531 97.3168 51.7778 97.3984 51.9411 96.8274C53.0845 97.1537 52.1045 97.3984 52.7578 97.8878C54.2279 98.622 56.7596 97.6431 57.4129 98.5404C57.4946 98.7036 56.9229 98.7036 56.6779 98.7036C57.7396 98.5404 61.2514 99.6824 60.4347 98.7036C63.0481 99.6009 65.6614 99.2746 67.7032 100.253C69.2549 99.6009 72.1949 101.559 72.9299 100.253C72.4399 101.64 77.4217 102.211 79.2184 101.885C78.5651 102.211 80.6068 102.619 79.8718 103.027C81.8318 103.353 83.6285 103.435 83.4652 102.701C86.7319 104.985 90.897 102.701 92.5304 105.066C95.4704 105.229 98.3288 105.393 101.106 105.556C103.882 105.8 106.496 105.964 109.191 106.208C108.782 107.513 103.392 105.474 103.392 106.861C105.924 106.942 107.966 106.861 109.926 106.861C111.886 106.861 113.846 106.861 116.296 107.432C117.521 107.758 115.479 107.921 114.989 108.084C117.521 108.084 119.889 108.492 122.258 108.819C124.626 109.145 126.831 109.39 129.118 109.308C129.118 109.39 128.628 109.471 128.138 109.553C129.036 109.553 130.18 109.961 130.098 109.39H129.2C127.893 108.492 132.875 108.084 133.038 107.677C131.405 109.145 137.366 108.574 134.753 110.369C135.325 110.369 136.06 110.124 135.978 109.716C136.795 109.879 137.04 110.124 136.141 110.532C139.326 110.532 138.265 109.798 141.123 110.124C141.123 110.369 140.47 110.45 140.143 110.776C141.613 110.369 143.083 109.961 145.533 110.369C145.37 110.532 145.615 110.776 144.962 110.695C147.003 110.858 148.8 110.613 150.597 110.45C152.393 110.287 154.272 110.205 156.558 110.613C155.17 111.674 158.11 111.021 158.273 112L160.724 111.837L159.744 111.347C161.867 111.347 163.745 110.858 165.624 111.184L163.99 111.511H167.992C167.992 111.429 165.705 111.021 165.705 111.021C167.91 110.532 165.542 109.798 168.319 110.124C167.747 110.205 170.442 110.124 171.585 110.695C172.647 110.45 173.709 110.124 175.261 110.287C175.669 110.532 174.934 111.266 175.261 111.511C176.322 110.776 180.242 111.266 181.549 110.45C181.141 110.613 181.141 111.103 181.222 111.184L182.121 110.532C183.101 110.695 183.264 110.776 183.101 111.103C186.041 111.103 182.121 110.042 185.632 110.369C185.387 110.369 185.469 110.532 184.897 110.613C186.694 110.613 188.409 110.532 190.043 110.369C191.676 110.124 193.309 109.961 194.943 109.961C195.923 110.695 192.084 110.369 193.228 111.021C197.964 110.532 202.864 109.145 207.356 108.819C207.111 108.819 206.785 108.819 206.54 108.819C207.03 107.677 209.97 108.819 212.175 108.003C211.603 108.166 211.521 108.737 211.685 108.574C213.236 108.411 214.788 108.166 216.585 107.677C218.3 107.187 220.26 106.698 222.547 106.127L222.057 106.453C223.935 106.453 226.793 105.556 228.753 105.229C229.243 104.822 230.387 104.658 229.652 104.495C232.755 104.495 235.532 103.516 238.227 102.619C240.922 101.722 243.454 100.661 246.149 100.335C245.495 100.498 244.76 100.988 245.25 100.824C246.72 100.253 248.109 99.764 249.579 99.193C249.089 99.0299 248.925 99.193 247.945 99.193C248.19 99.0299 248.599 98.7851 249.089 98.5404C249.579 98.2957 250.151 98.051 250.641 97.8878C248.762 98.7851 250.804 98.3773 251.702 98.2957C251.539 98.2957 251.702 98.051 251.702 97.9694C254.152 97.7247 251.866 97.2352 255.051 96.5011V96.7458C256.112 96.2564 257.092 95.6854 258.317 95.1959C258.971 95.2775 257.174 95.8485 257.174 96.1748C258.889 95.4406 260.359 94.1355 261.992 93.8092C261.339 94.217 260.277 94.6249 259.542 95.0328C261.421 94.7065 261.584 94.5433 262.809 94.0539H262.646C263.626 93.7276 264.606 93.4013 265.586 92.9934L264.851 93.2382C266.648 91.4436 269.098 91.0357 271.711 89.2411C269.179 90.9541 271.384 89.7305 271.303 90.0568C271.711 89.8937 272.201 89.7305 272.528 89.6489C272.854 89.4858 273.099 89.4858 272.936 89.6489C274.161 88.6701 275.223 88.5885 276.856 87.2833C277.019 87.2833 278.244 86.5492 278.081 86.8755C279.715 85.8966 277.591 86.957 277.673 86.7939C278.326 86.386 278.979 85.9781 279.715 85.5703C280.45 85.1624 281.266 84.673 282.083 84.1835C283.716 83.2047 285.513 82.2258 287.228 80.839C290.168 78.6366 290.576 78.0655 293.353 76.0262C293.843 75.6999 293.68 75.8631 293.353 76.1894C293.026 76.4341 292.618 76.7604 292.618 76.7604C293.435 76.2709 294.088 75.7815 294.66 75.2921C295.313 74.8026 295.885 74.3132 296.538 73.7422C296.293 73.9869 296.538 73.7422 297.028 73.4974C298.09 72.6001 297.682 72.7633 299.152 71.7028C298.907 71.9476 298.662 72.2738 298.172 72.6817C298.825 72.1107 299.478 71.6213 300.05 71.0502C300.622 70.4792 301.275 69.9082 301.847 69.3372C302.255 69.0925 301.112 70.0714 300.703 70.5608C302.092 69.2556 304.378 67.1347 304.787 66.7269L303.888 67.5426C304.378 67.0532 304.215 67.3795 303.888 67.7057C302.745 68.8478 302.092 69.2556 302.01 69.3372L302.908 68.5215C302.418 68.8478 301.438 69.6635 300.458 70.6424C299.968 71.1318 299.397 71.6213 298.825 72.0291C298.253 72.5186 297.763 72.9264 297.273 73.3343L297.927 72.5186L296.048 74.2316C295.558 74.5579 295.232 74.6395 296.13 73.9053C294.66 74.8842 294.905 74.8842 293.68 75.7815C293.516 75.8631 293.598 75.7815 293.68 75.7815C293.271 76.1894 292.781 76.5157 292.291 76.8419C292.536 76.5972 291.965 76.8419 292.863 76.2709C290.25 77.9024 288.861 79.2076 287.8 79.697L287.963 79.5339C286.248 80.7575 286.166 80.839 286.248 80.9206C286.248 80.9206 286.493 80.9206 285.186 81.8995C284.451 82.1442 283.716 82.3074 282.981 82.4705L282.736 82.8784C282.328 83.1231 281.593 83.5309 281.675 83.3678C280.368 84.3467 282.001 83.3678 281.266 83.9388C279.388 84.9177 276.203 86.8755 275.549 86.7123C274.978 87.2833 277.428 85.8966 275.549 87.1202C274.733 86.957 273.263 88.4253 271.466 89.0779C271.874 88.5885 273.589 87.8543 271.711 88.5069C270.894 89.4042 268.199 89.9752 266.811 90.7094C266.811 90.9541 266.076 91.362 264.932 91.8514C263.871 92.4224 262.319 92.9119 261.094 93.4829C261.094 93.4013 259.951 93.8092 258.399 94.3802C257.664 94.6249 256.766 94.9512 255.949 95.1959C255.132 95.4406 254.316 95.6854 253.744 95.8485C253.417 96.4195 250.967 97.1537 249.171 97.8878C249.171 97.5615 249.415 97.3168 250.396 96.8274L248.68 97.3984C248.354 97.7247 247.864 97.9694 246.72 98.3773L247.047 97.8878C244.76 98.5404 242.555 99.764 239.534 100.335C239.534 100.824 242.229 100.824 239.125 101.885C238.962 101.722 238.717 101.314 239.534 101.069C239.289 101.151 238.635 101.477 238.064 101.559L239.207 100.824C237.819 100.988 238.554 101.314 237.492 101.559C237.492 101.232 236.594 101.559 236.675 101.232C236.92 101.151 237.655 101.151 238.064 100.906C236.839 101.151 235.287 101.314 234.715 101.232C234.879 101.395 234.797 101.64 233.98 101.966C231.693 102.619 233.082 101.803 231.693 101.966C231.203 102.293 229.652 102.374 229.733 102.864C229.08 103.027 228.835 102.864 228.59 102.701C227.447 103.19 222.955 103.924 224.425 104.251H224.752H224.588C222.628 104.903 220.505 105.148 218.463 105.474C217.401 105.637 216.34 105.719 215.36 105.882C214.298 105.964 213.318 106.127 212.338 106.29V106.127C209.97 106.616 207.03 107.024 205.396 107.595C204.661 107.595 203.681 107.35 203.926 107.106C202.129 107.432 201.966 107.677 199.271 107.595C201.068 107.024 198.618 107.35 201.149 107.106C198.781 107.106 198.209 106.861 195.678 107.595C196.494 107.024 193.799 107.024 192.738 107.269L194.453 107.595C193.146 107.758 192.084 107.758 190.941 107.758L191.513 106.942C190.288 106.779 189.144 106.861 188.001 106.942C186.857 107.024 185.877 107.269 184.816 107.432C182.774 107.84 180.896 108.166 179.017 107.269C177.711 107.84 181.712 107.677 180.569 108.329C178.282 108.248 175.996 107.106 175.261 107.106C172.157 106.616 172.402 108.248 169.135 107.921C169.544 108.248 169.952 108.982 167.502 109.227C165.215 109.063 164.807 107.921 166.195 107.677C166.767 107.677 167.012 107.758 166.93 107.84C167.665 107.758 168.645 107.677 167.747 107.269L167.42 107.595C166.277 107.269 163.255 107.187 163.99 106.698C162.275 106.861 163.255 107.187 164.48 107.35C161.622 106.779 159.989 107.106 157.048 106.616C157.538 106.779 157.947 107.187 157.457 107.187C153.128 106.535 155.497 107.677 152.557 107.595C150.923 107.024 153.21 106.535 150.27 106.698C148.473 106.208 149.943 105.8 150.678 105.637C149.29 105.8 148.065 105.637 146.922 105.393C145.86 105.066 144.88 104.74 144.145 104.577H145.615C144.717 104.577 144.063 104.495 143.328 104.414L144.063 105.148C143.246 104.985 142.511 104.903 142.593 104.577C141.695 104.903 143.165 105.719 141.368 106.127C140.306 105.719 137.938 106.127 137.611 105.229C141.041 105.882 137.285 104.332 140.306 104.495C139.735 104.495 139 104.495 138.183 104.251C138.101 104.169 138.346 104.087 138.51 104.087C135.243 102.945 136.876 104.903 133.446 104.495C133.936 104.087 132.711 103.435 132.14 103.516C133.528 103.68 132.711 104.414 131.405 104.658C129.2 104.006 128.955 104.658 127.811 104.414L129.118 104.74C128.628 105.148 127.484 104.985 125.933 104.903C125.851 104.495 127.403 104.822 126.831 104.577C125.034 105.229 123.074 103.19 120.624 103.435C119.563 102.945 120.624 102.456 119.726 102.13C116.949 102.374 116.949 100.988 114.091 101.151C114.826 101.966 114.989 101.803 112.866 102.211L117.521 102.456L114.418 103.027C115.806 103.272 117.439 103.027 118.256 103.272C116.786 103.598 116.949 103.435 117.521 104.169C115.724 102.864 113.601 104.169 111.559 103.19L111.886 101.477C108.701 100.172 105.842 101.477 101.677 100.253L102.984 100.824C102.331 101.395 100.289 100.498 98.9005 100.498C99.1455 99.9272 98.3288 99.6009 97.7571 99.1114C97.7571 99.6009 94.6537 98.5404 94.0004 99.6009L92.2037 98.4588C88.7736 97.48 87.9569 99.4377 84.6902 98.622C85.8336 98.1326 84.3635 97.48 86.7319 97.3984C85.5885 97.1537 84.6085 96.909 84.5269 97.3168C83.9552 96.8274 81.2601 97.5615 80.3618 96.7458C79.8718 96.909 79.5451 97.48 78.3201 97.2352C78.2384 97.0721 78.3201 96.909 78.3201 96.909C78.3201 97.2352 76.2783 96.909 77.2584 97.8063C74.2366 95.2775 67.6215 96.0932 65.0081 93.8907C62.558 93.646 59.618 93.2382 57.4129 92.8303C57.5763 92.6671 57.4129 92.504 57.9029 92.6671C54.9629 91.4436 55.6979 94.0539 52.3495 92.6671C50.7978 91.2804 54.3095 92.504 53.2478 91.933C53.2478 89.8121 49.0827 91.362 47.041 89.6489H47.6127C46.061 88.5885 43.2026 89.4042 40.4259 88.4253C40.4259 88.4253 40.5892 88.2622 40.5076 88.0991C38.3025 88.5885 34.5458 87.7728 31.8507 87.0386C32.9941 86.5492 33.1574 87.0386 32.9941 86.1413C31.769 85.815 32.9124 87.528 30.4623 86.8755C29.8907 86.1413 28.339 85.0808 28.5023 84.1835C29.2373 84.5098 29.9723 84.7545 30.7073 84.9993C30.054 83.4494 27.9306 83.8572 26.8689 83.2047L27.1956 82.7968C25.5622 82.1442 24.6639 81.9811 23.6839 81.8995C22.7038 81.7363 21.7238 81.5732 20.0904 80.4312L20.2538 81.0022C17.8037 80.9206 19.1921 79.4523 16.987 78.9628L17.3137 77.5761C16.987 77.413 16.5787 77.2498 16.0887 77.0051C15.5987 76.7604 15.027 76.4341 14.4553 76.1078C13.312 75.4552 12.0869 74.4763 11.1886 73.6606C12.8219 74.15 15.027 75.8631 16.742 76.5157C16.497 76.2709 16.1704 76.0262 15.762 75.6999C15.4353 75.3736 15.027 75.0473 14.6187 74.721C14.2103 74.3948 13.8836 74.0685 13.4753 73.8237C13.1486 73.579 12.8219 73.4159 12.5769 73.4159C12.9853 73.7422 13.6386 73.9869 13.8836 74.5579C12.0869 74.0685 10.2086 72.6817 8.90186 70.3161C9.47354 70.0714 9.63688 69.5819 9.47354 68.9294C9.39187 68.2768 8.98353 67.461 8.73853 66.4822C8.57519 65.9927 8.41185 65.5033 8.33018 65.0954C8.16685 64.606 8.08518 64.1165 8.08518 63.7087C8.08518 63.2192 8.08518 62.8114 8.08518 62.4851C8.16685 62.0772 8.33018 61.7509 8.49352 61.5062C7.7585 59.4669 7.84017 57.2644 8.41185 55.0619C8.98353 52.8594 9.96355 50.657 10.9436 48.2913C8.41185 49.1886 11.5153 46.9046 9.63688 46.3336C10.1269 45.11 10.3719 44.7021 10.5352 44.7021C11.0252 44.2127 11.5153 43.8048 12.0053 43.3154L13.557 42.0918C14.047 41.9286 13.9653 42.1733 13.802 42.5812C13.6386 42.9891 13.4753 43.3969 13.6386 43.4785C14.4553 42.4181 14.782 42.3365 15.1087 42.3365C15.4353 42.3365 15.6803 42.4996 16.4154 42.0102C15.5987 41.847 16.1704 40.6234 17.3954 39.7261C16.6604 40.0524 16.007 40.3787 15.272 40.7866C15.6803 39.8893 16.0887 39.3183 16.497 38.992C16.9054 38.6657 17.3954 38.5025 17.8037 38.3394C18.2121 38.1763 18.7021 38.0947 19.1104 37.7684C19.6004 37.4421 20.0088 36.9527 20.5805 36.1369C20.4171 36.5448 20.2538 36.9527 20.0904 37.3605C20.6621 36.5448 22.0505 35.4028 23.4389 34.1792C24.8272 32.9556 26.1339 31.732 26.6239 30.5084C27.0323 30.5084 27.7673 30.7531 27.0323 31.3241C29.1556 30.1821 31.279 28.5506 33.4841 27.0823C35.6891 25.6956 37.8942 24.472 39.8542 24.2272L39.6909 24.7983C40.5076 24.3088 40.9159 23.4115 42.1409 23.4115C42.1409 23.6562 41.9776 23.9825 42.3859 23.8194C42.7943 23.4931 44.4276 22.1879 45.7343 22.0248L44.9177 22.8405C49.7361 21.78 51.6961 19.2513 55.6162 17.783C56.0246 19.0881 59.863 18.4355 61.7414 18.1092V18.354C64.5181 17.6198 66.8048 16.8041 69.0099 15.9068C71.2149 15.0095 73.42 13.949 75.9517 13.1333C77.7484 13.4596 80.5251 13.1333 83.4652 12.4807C84.9352 12.1544 86.5686 11.9913 88.0386 11.7465C89.5903 11.5018 91.0603 11.3387 92.367 11.3387C91.5503 11.2571 92.367 10.3598 93.2654 10.0335C94.5721 10.0335 96.5321 8.56519 96.5321 9.78878C96.3688 9.78878 96.2055 9.78878 96.1238 9.78878C97.1855 10.7677 99.7172 10.1151 101.677 9.87036L101.841 8.32047C104.617 9.05463 107.966 8.32047 111.069 7.83103C114.173 7.26001 116.949 6.77058 118.501 7.58631C119.726 7.09687 121.278 7.0153 122.503 6.60743V7.34159C126.014 7.34159 127.729 7.26001 132.058 6.85215L131.16 7.42316C133.61 7.42316 134.181 5.22068 136.468 5.05754L137.203 6.11799C139.326 6.11799 141.45 6.11799 143.655 6.36271C145.778 6.52586 147.902 6.52586 150.025 6.03642C150.025 6.19956 149.78 6.52586 149.127 6.52586C150.107 6.52586 152.067 6.77058 153.7 6.77058C155.333 6.77058 156.558 6.77058 156.232 5.95484C156.232 6.85215 160.642 6.28114 162.929 5.95484L162.52 6.60743C163.5 6.19956 164.072 5.95484 164.644 5.87327C165.297 5.71012 165.95 5.62855 167.339 5.62855C167.992 5.7917 167.829 6.19956 167.012 5.95484C169.135 6.44428 168.727 5.4654 171.34 6.03642L170.36 6.36271C172.565 6.60743 172.402 6.36271 173.709 6.03642C175.097 5.95484 177.874 6.52586 178.119 7.17844C178.446 6.85215 179.671 6.60743 180.977 6.93372C181.141 7.17844 180.651 7.26001 180.406 7.26001C183.999 8.07575 185.959 7.26001 188.409 8.15732C188.409 8.32047 188.572 8.48361 188.817 8.56519C185.877 8.23889 183.591 7.9126 183.754 7.83103C183.754 8.40204 186.041 8.72833 184.081 9.29935C186.041 9.1362 189.389 8.56519 191.594 9.29935C191.676 9.29935 191.758 9.46249 191.839 9.54406H191.594C192.084 9.70721 192.574 9.70721 193.064 9.70721C193.799 9.87036 194.208 10.0335 194.943 10.1151C195.106 10.6045 197.556 10.7677 198.781 10.9308C198.781 10.3598 200.333 10.6861 198.944 10.0335C199.108 10.0335 198.699 10.0335 197.964 10.0335C197.801 10.0335 197.556 10.0335 197.474 10.0335C197.474 10.0335 197.474 10.0335 197.556 10.0335C196.821 9.95193 195.759 9.78878 194.616 9.62564C195.596 9.46249 196.576 9.38092 197.801 9.95193C198.454 9.70721 199.189 9.46249 199.598 9.38092C201.068 10.3598 204.008 11.4202 204.416 11.9097C206.213 12.0728 208.336 12.4807 210.296 12.7254C210.786 12.7254 211.276 12.807 211.766 12.8886C212.256 12.8886 212.665 12.9701 213.073 13.0517C213.89 13.0517 214.706 13.1333 215.278 13.0517C216.34 13.2149 216.34 13.5412 216.748 13.7859C216.176 13.7859 215.441 13.5412 215.115 13.6227C217.156 13.8674 221.077 14.9279 221.73 14.52C224.18 15.4173 220.178 14.6832 223.69 15.4989H223.2C226.467 16.9672 229.325 17.2935 232.265 17.783C235.205 18.2724 238.145 19.0066 241.657 20.7196C241.167 20.4749 240.922 20.3933 240.84 20.2302C244.924 21.8616 249.252 23.4115 253.417 25.2877C257.582 27.0823 261.584 29.2848 265.178 31.732C267.219 33.1187 267.546 33.1187 268.853 33.9344L269.179 34.4239C269.914 34.8318 270.649 35.3212 271.384 35.8106C272.854 36.8711 273.998 38.0131 275.223 39.2367C276.448 40.4603 277.673 41.7655 279.306 43.3969C279.224 43.2338 279.061 43.0706 278.979 42.9075C280.123 44.1311 282.328 46.9862 282.083 46.823C282.165 46.9862 282.491 47.2309 282.818 47.8019C283.226 48.4545 283.553 49.0255 283.961 49.5965C284.288 50.1675 284.696 50.7385 285.023 51.3911C285.758 52.7779 285.676 52.6963 285.676 52.7779C285.676 52.7779 285.84 53.0226 286.738 55.1435C287.473 56.6934 288.371 59.7932 288.208 59.1406C287.963 58.488 287.718 57.4275 287.718 57.346L288.208 58.8958C288.29 59.1406 288.616 60.3642 287.555 56.6118L287.146 55.3066C286.983 54.8988 286.82 54.4909 286.656 54.083L286.33 53.2673C286.575 54.0014 286.901 54.654 287.146 55.3882C286.738 54.1646 286.411 53.3489 286.003 52.5331C286.003 52.2884 285.758 51.9621 285.595 51.4727C285.186 50.657 284.778 49.9228 284.288 49.1886C284.206 48.8623 284.941 50.1675 284.125 48.6176C283.471 47.5572 284.615 49.6781 283.553 47.965C282.9 46.823 283.145 47.1493 282.246 45.8441C282.165 45.681 282.41 45.8441 282.736 46.4151C282.328 45.8441 281.756 45.11 281.348 44.4574C280.858 43.8048 280.368 43.2338 280.123 42.9891C279.715 42.4181 278.979 41.5208 278.326 40.8682C277.673 40.134 277.101 39.563 277.264 39.563C276.938 39.2367 275.468 38.0131 274.488 37.1974C275.468 37.85 274.569 37.0342 273.508 36.1369C272.446 35.2396 271.221 34.1792 271.548 34.2607C270.078 33.445 266.566 30.5899 263.871 29.2032C264.034 29.2032 264.361 29.3663 264.524 29.5295C263.136 28.6322 262.727 28.2243 261.829 27.5717C261.502 27.7349 259.134 26.5113 257.746 26.1034C256.112 24.7983 259.052 26.2666 258.644 25.6956C258.644 25.8587 257.746 25.5324 257.011 25.2061C256.276 24.8798 255.541 24.6351 255.786 24.8798C254.479 23.9009 254.642 24.1457 253.989 23.4931C253.499 23.8194 252.601 22.9221 251.294 22.6773C249.334 21.4538 250.967 21.9432 248.599 21.0459C247.537 20.3933 249.742 21.0459 249.742 21.0459L249.497 20.3933ZM191.594 5.38383C192.084 5.38383 192.574 5.54698 192.819 5.54698C192.574 5.54698 192.248 5.4654 191.594 5.38383ZM186.612 4.64967C187.184 4.73125 188.001 4.89439 188.736 4.97596C188.899 5.22068 188.736 5.38383 188.164 5.30226C188.491 5.22068 187.266 4.89439 186.612 4.64967ZM196.413 10.1966C195.596 10.1966 195.351 10.0335 195.269 9.87036C195.678 9.87036 196.086 9.95193 196.658 10.0335C196.658 10.0335 196.658 10.0335 196.739 10.0335C196.658 10.1151 196.576 10.1966 196.413 10.2782V10.1966Z" fill="#B32E5D"/>
<path d="M197.964 9.62564C198.046 9.62564 198.128 9.62564 198.291 9.62564C198.128 9.62564 197.964 9.46249 197.883 9.46249C197.801 9.46249 197.638 9.54406 197.556 9.62564C197.719 9.62564 197.883 9.62564 197.964 9.62564Z" fill="#B32E5D"/>
<path d="M224.752 104.087H224.67C224.752 104.087 224.833 104.087 224.915 104.087C224.915 104.087 224.915 104.087 224.752 104.087Z" fill="#B32E5D"/>
<path d="M117.194 0.489439V0.652586L117.603 0.407866L117.194 0.489439Z" fill="#B32E5D"/>
<path d="M251.702 98.2957C251.702 98.2957 251.866 98.2957 252.111 98.2957C252.111 98.2957 251.947 98.2957 251.702 98.2957Z" fill="#B32E5D"/>
<path d="M262.891 93.9723L264.524 93.4013C263.789 93.646 263.299 93.8092 262.891 93.9723Z" fill="#B32E5D"/>
<path d="M271.221 90.2199C271.221 90.1384 271.303 90.0568 271.303 90.0568L271.221 90.2199Z" fill="#B32E5D"/>
<path d="M127.974 109.553C127.811 109.553 127.729 109.553 127.648 109.553C126.831 109.553 127.403 109.553 127.974 109.553Z" fill="#B32E5D"/>
<path d="M171.585 110.613C171.095 110.695 170.687 110.858 170.197 110.94C170.932 110.94 171.585 111.021 171.585 110.613Z" fill="#B32E5D"/>
<path d="M79.7901 103.19C79.7084 103.19 79.6268 103.19 79.4634 103.19H79.7901Z" fill="#B32E5D"/>
<path d="M168.155 110.858C168.89 111.021 169.544 111.021 170.197 110.858C169.544 110.858 168.809 110.695 168.155 110.858Z" fill="#B32E5D"/>
<path d="M304.378 67.461L304.705 67.1347C304.542 67.2979 304.378 67.3795 304.378 67.461Z" fill="#B32E5D"/>
<path d="M305.44 66.4006L304.705 67.1347C304.95 66.89 305.277 66.5637 305.44 66.4006Z" fill="#B32E5D"/>
<path d="M294.66 75.6183V75.7815C294.66 75.7815 294.66 75.6999 294.66 75.6183Z" fill="#B32E5D"/>
<path d="M291.72 77.8208C292.455 77.3314 293.598 76.6788 294.578 75.8631C294.17 76.1894 292.291 77.2498 291.72 77.8208Z" fill="#B32E5D"/>
<path d="M278.244 85.244C278.734 84.9993 279.143 84.8361 279.633 84.5914L280.94 83.8572C280.45 84.0204 279.715 84.2651 280.94 83.531C279.224 84.3467 279.388 84.3467 279.633 84.3467C279.796 84.3467 280.041 84.3467 278.244 85.3256V85.244Z" fill="#B32E5D"/>
<path d="M269.588 89.3226C271.058 88.5885 269.506 89.1595 269.588 89.0779C268.689 89.5674 268.444 89.7305 269.588 89.3226Z" fill="#B32E5D"/>
<path d="M203.436 106.779V106.208C202.293 106.371 203.518 106.453 203.436 106.779Z" fill="#B32E5D"/>
<path d="M190.451 110.776L191.758 111.021L192.248 110.45L190.451 110.776Z" fill="#B32E5D"/>
<path d="M182.529 106.861H183.101C182.366 106.861 181.712 106.942 180.977 107.024C181.467 107.024 182.039 106.942 182.529 106.861Z" fill="#B32E5D"/>
<path d="M68.0298 93.075L68.1932 94.1355C69.0915 94.1355 69.4999 93.075 68.0298 93.075Z" fill="#B32E5D"/>
<path d="M20.9888 79.8602C20.8255 79.126 19.9271 78.1471 18.9471 78.0655C19.7638 78.7181 20.4171 79.6154 20.9888 79.8602Z" fill="#B32E5D"/>
<path d="M104.617 8.80991L103.719 9.21777L105.516 8.72833L104.617 8.80991Z" fill="#B32E5D"/>
</svg>
