<svg width="164" height="65" viewBox="0 0 164 65" fill="none" xmlns="http://www.w3.org/2000/svg">
<path d="M163.915 28.3352C161.143 16.9581 150.304 10.2657 139.802 7.08678C129.3 3.90789 127.284 3.99154 120.899 2.98768C114.513 1.98382 107.792 1.14727 101.155 0.645339C87.8802 -0.358522 74.6056 -0.191212 61.331 1.14727C48.0564 2.48575 48.4765 2.73672 42.0913 3.90789C35.706 5.07906 29.5728 6.41754 23.5236 8.34161C17.9786 10.0984 12.4335 12.608 8.06462 16.5398C3.69577 20.4716 1.00725 24.9053 0.167082 30.3429C-0.673082 35.7805 1.09126 41.0507 4.3679 45.4008C7.89659 50.0018 12.8536 53.0971 18.1466 55.2721C24.0277 57.6981 30.245 59.1202 36.4622 60.3751C42.6794 61.6299 49.2327 62.7174 55.6179 63.3867C68.8085 64.8924 82.1671 65.1434 95.4417 64.5578C108.548 64.0559 121.823 62.8847 134.845 60.9607C147.868 59.0366 146.692 58.7856 151.817 55.5231C156.186 52.7625 159.798 48.3287 160.974 43.2258C161.563 40.7998 161.563 38.2901 160.974 35.9478C160.386 33.6054 158.118 35.0276 158.538 36.617C159.798 41.469 157.698 46.4883 154.421 50.0855C151.145 53.6827 145.515 56.1923 140.306 57.3635C134.425 58.702 128.292 59.2876 122.327 59.9568C116.026 60.626 109.724 61.2116 103.339 61.6299C78.1343 63.2193 52.4253 62.2155 27.9765 55.6904C17.8105 53.0134 5.96421 48.0778 3.02364 36.868C0.0830658 25.6582 3.19167 26.7457 6.04823 22.4793C8.90479 18.2129 13.8618 14.6994 18.9027 12.4407C23.9437 10.182 29.8249 8.75988 35.454 7.50506C41.6712 6.08292 47.9724 4.9954 54.3577 4.15885C66.8761 2.48575 79.4786 1.90017 92.165 2.31844C104.852 2.73672 117.37 4.32616 129.72 6.83582C142.071 9.34547 152.237 12.4407 158.622 22.061C165.007 31.6814 160.974 26.3275 161.563 28.6698C162.151 31.0121 164.419 29.59 163.999 28.0006L163.915 28.3352Z" fill="black"/>
</svg>
